<?xml version="1.0" encoding="iso-8859-1" ?>
<!-- Generator: Adobe Illustrator 19.0.0, SVG Export Plug-In . SVG Version: 6.00 Build 0)  -->
<svg
  version="1.1"
  id="Layer_1"
  xmlns="http://www.w3.org/2000/svg"
  xmlns:xlink="http://www.w3.org/1999/xlink"
  x="0px"
  y="0px"
  viewBox="0 0 512 512"
  style="enable-background:new 0 0 512 512;"
  xml:space="preserve"
>
<!-- <g>
	<path
      style="fill:#D0E8FF;"
      d="M223.418,280.436c-10.264,0-18.618,8.354-18.618,18.618s8.354,18.618,18.618,18.618
		c10.264,0,18.618-8.354,18.618-18.618S233.682,280.436,223.418,280.436z"
    />
	<path
      style="fill:#D0E8FF;"
      d="M121.018,280.436c-10.264,0-18.618,8.354-18.618,18.618s8.354,18.618,18.618,18.618
		s18.618-8.354,18.618-18.618S131.282,280.436,121.018,280.436z"
    />
</g> -->
<!-- <rect
    x="251.345"
    y="168.727"
    style="fill:#5CB0FF;"
    width="93.091"
    height="27.927"
  /> -->
<!-- <g>
	<path
      style="fill:#D0E8FF;"
      d="M325.818,280.436c-10.264,0-18.618,8.354-18.618,18.618s8.354,18.618,18.618,18.618
		s18.618-8.354,18.618-18.618S336.082,280.436,325.818,280.436z"
    />
	<path
      style="fill:#D0E8FF;"
      d="M409.591,233.891h-55.845c-5.145,0-9.309-4.164-9.309-9.309v-9.309h-102.4
		c-5.145,0-9.309-4.164-9.309-9.309v-46.545c0-5.145,4.164-9.309,9.309-9.309h102.4v-18.618h-102.4h-18.618H204.8v93.091
		c0,5.145-4.164,9.309-9.309,9.309H90.082l-33.509,83.782l33.509,83.782h319.509c46.2,0,83.791-37.582,83.791-83.782
		S455.791,233.891,409.591,233.891z M121.018,336.291c-20.536,0-37.236-16.7-37.236-37.236s16.7-37.236,37.236-37.236
		s37.236,16.7,37.236,37.236S141.554,336.291,121.018,336.291z M223.418,336.291c-20.536,0-37.236-16.7-37.236-37.236
		s16.7-37.236,37.236-37.236s37.236,16.7,37.236,37.236S243.954,336.291,223.418,336.291z M325.818,336.291
		c-20.536,0-37.236-16.7-37.236-37.236s16.7-37.236,37.236-37.236c20.536,0,37.236,16.7,37.236,37.236
		S346.354,336.291,325.818,336.291z M428.218,336.291c-20.536,0-37.236-16.7-37.236-37.236s16.7-37.236,37.236-37.236
		s37.236,16.7,37.236,37.236S448.754,336.291,428.218,336.291z"
    />
	<path
      style="fill:#D0E8FF;"
      d="M428.218,280.436c-10.264,0-18.618,8.354-18.618,18.618s8.354,18.618,18.618,18.618
		s18.618-8.354,18.618-18.618S438.482,280.436,428.218,280.436z"
    />
</g> -->
<g>
	<path
      style="fill:#1DA1F1;"
      d="M409.591,215.273h-46.536v-9.309v-46.545v-37.236c0-5.145-4.164-9.309-9.309-9.309H242.036V19.782
		h-18.618v93.091h-27.927c-5.145,0-9.309,4.164-9.309,9.309v93.091h-102.4c-3.809,0-7.227,2.318-8.645,5.854L37.9,314.218
		c-0.882,2.218-0.882,4.691,0,6.909l37.236,93.091c1.418,3.536,4.836,5.854,8.645,5.854h325.809
		c56.473,0,102.409-45.936,102.409-102.4S466.064,215.273,409.591,215.273z M344.436,196.655h-93.091v-27.927h93.091V196.655z
		 M409.591,401.455H90.082l-33.509-83.782l33.509-83.782h105.409c5.145,0,9.309-4.164,9.309-9.309v-93.091h18.618h18.618h102.4
		v18.618h-102.4c-5.145,0-9.309,4.164-9.309,9.309v46.545c0,5.145,4.164,9.309,9.309,9.309h102.4v9.309
		c0,5.145,4.164,9.309,9.309,9.309h55.845c46.2,0,83.791,37.582,83.791,83.782C493.382,363.873,455.791,401.455,409.591,401.455z"
    />
	<path
      style="fill:#1DA1F1;"
      d="M9.309,159.418c-5.145,0-9.309,4.164-9.309,9.309v130.327c0,5.145,4.164,9.309,9.309,9.309
		s9.309-4.164,9.309-9.309V168.727C18.618,163.582,14.454,159.418,9.309,159.418z"
    />
	<path
      style="fill:#1DA1F1;"
      d="M9.309,326.982c-5.145,0-9.309,4.164-9.309,9.309v130.327c0,5.145,4.164,9.309,9.309,9.309
		s9.309-4.164,9.309-9.309V336.291C18.618,331.146,14.454,326.982,9.309,326.982z"
    />
	<path
      style="fill:#1DA1F1;"
      d="M428.218,261.818c-20.536,0-37.236,16.7-37.236,37.236s16.7,37.236,37.236,37.236
		s37.236-16.7,37.236-37.236S448.754,261.818,428.218,261.818z M428.218,317.673c-10.264,0-18.618-8.354-18.618-18.618
		s8.354-18.618,18.618-18.618s18.618,8.354,18.618,18.618S438.482,317.673,428.218,317.673z"
    />
	<path
      style="fill:#1DA1F1;"
      d="M325.818,261.818c-20.536,0-37.236,16.7-37.236,37.236s16.7,37.236,37.236,37.236
		c20.536,0,37.236-16.7,37.236-37.236S346.354,261.818,325.818,261.818z M325.818,317.673c-10.264,0-18.618-8.354-18.618-18.618
		s8.354-18.618,18.618-18.618s18.618,8.354,18.618,18.618S336.082,317.673,325.818,317.673z"
    />
	<path
      style="fill:#1DA1F1;"
      d="M223.418,261.818c-20.536,0-37.236,16.7-37.236,37.236s16.7,37.236,37.236,37.236
		s37.236-16.7,37.236-37.236S243.954,261.818,223.418,261.818z M223.418,317.673c-10.264,0-18.618-8.354-18.618-18.618
		s8.354-18.618,18.618-18.618c10.264,0,18.618,8.354,18.618,18.618S233.682,317.673,223.418,317.673z"
    />
	<path
      style="fill:#1DA1F1;"
      d="M121.018,261.818c-20.536,0-37.236,16.7-37.236,37.236s16.7,37.236,37.236,37.236
		s37.236-16.7,37.236-37.236S141.554,261.818,121.018,261.818z M121.018,317.673c-10.264,0-18.618-8.354-18.618-18.618
		s8.354-18.618,18.618-18.618s18.618,8.354,18.618,18.618S131.282,317.673,121.018,317.673z"
    />
</g>
<!-- <g>
	<path
      style="fill:#FF5D5D;"
      d="M57.052,73.309c-2.382,0-4.766-0.909-6.582-2.727c-3.636-3.634-3.636-9.529,0-13.164l32.914-32.914
		c3.632-3.636,9.532-3.636,13.164,0c3.636,3.634,3.636,9.529,0,13.164L63.634,70.582C61.818,72.4,59.434,73.309,57.052,73.309z"
    />
	<path
      style="fill:#FF5D5D;"
      d="M89.966,73.309c-2.382,0-4.764-0.909-6.582-2.727L50.47,37.67c-3.636-3.634-3.636-9.529,0-13.164
		c3.632-3.636,9.527-3.636,13.164,0l32.914,32.911c3.636,3.634,3.636,9.529,0,13.164C94.732,72.4,92.348,73.309,89.966,73.309z"
    />
</g> -->
<!-- <path
    style="fill:#00D40B;"
    d="M313.052,492.218c-17.966,0-32.582-14.616-32.582-32.582c0-17.966,14.616-32.582,32.582-32.582
	s32.582,14.616,32.582,32.582C345.634,477.602,331.018,492.218,313.052,492.218z M313.052,445.673
	c-7.7,0-13.964,6.264-13.964,13.964c0,7.7,6.264,13.964,13.964,13.964s13.964-6.264,13.964-13.964
	C327.016,451.936,320.752,445.673,313.052,445.673z"
  />
<path
    style="fill:#FFC504;"
    d="M427.818,144.586c-2.382,0-4.764-0.909-6.582-2.727l-26.33-26.33c-3.636-3.634-3.636-9.529,0-13.164
	l26.33-26.33c3.632-3.636,9.527-3.636,13.164,0l26.332,26.33c1.745,1.745,2.727,4.114,2.727,6.582s-0.982,4.836-2.727,6.582
	l-26.332,26.33C432.582,143.677,430.2,144.586,427.818,144.586z M414.655,108.948l13.164,13.166l13.166-13.166l-13.166-13.166
	L414.655,108.948z" -->
  />
<g>
</g>
<g>
</g>
<g>
</g>
<g>
</g>
<g>
</g>
<g>
</g>
<g>
</g>
<g>
</g>
<g>
</g>
<g>
</g>
<g>
</g>
<g>
</g>
<g>
</g>
<g>
</g>
<g>
</g>
</svg>
